PathFileType	4	(X/Y/Z)	/home/nbianco/projects/addbio/data/HamnerRunning2013/Processed/subject19//results/MarkerData/run500.trc
DataRate	CameraRate	NumFrames	NumMarkers	Units	OrigDataRate	OrigDataStartFrame	OrigNumFrames
120.005	120.005	9	42	m	120.005	29	232
Frame#	Time	C7			CLAV			LACR			LASI			LCAL			LFAradius			LFAsuperior			LFAulna			LLEL			LMEL			LMT5			LPSI			LTB1			LTB2			LTB3			LTH1			LTH2			LTH3			LTOE			LUA1			LUA2			LUA3			RACR			RASI			RCAL			RFAradius			RFAsuperior			RFAulna			RLEL			RMEL			RMT5			RPSI			RTB1			RTB2			RTB3			RTH1			RTH2			RTH3			RTOE			RUA1			RUA2			RUA3		
		X1	Y1	Z1	X2	Y2	Z2	X3	Y3	Z3	X4	Y4	Z4	X5	Y5	Z5	X6	Y6	Z6	X7	Y7	Z7	X8	Y8	Z8	X9	Y9	Z9	X10	Y10	Z10	X11	Y11	Z11	X12	Y12	Z12	X13	Y13	Z13	X14	Y14	Z14	X15	Y15	Z15	X16	Y16	Z16	X17	Y17	Z17	X18	Y18	Z18	X19	Y19	Z19	X20	Y20	Z20	X21	Y21	Z21	X22	Y22	Z22	X23	Y23	Z23	X24	Y24	Z24	X25	Y25	Z25	X26	Y26	Z26	X27	Y27	Z27	X28	Y28	Z28	X29	Y29	Z29	X30	Y30	Z30	X31	Y31	Z31	X32	Y32	Z32	X33	Y33	Z33	X34	Y34	Z34	X35	Y35	Z35	X36	Y36	Z36	X37	Y37	Z37	X38	Y38	Z38	X39	Y39	Z39	X40	Y40	Z40	X41	Y41	Z41	X42	Y42	Z42

30	0.433333	1.10478	1.54143	-0.305902	1.22035	1.46155	-0.306944	1.10596	1.52193	-0.478897	1.17141	1.0357	-0.419096	1.26046	0.275876	-0.365115	1.00214	1.18709	-0.546881	0.880902	1.34916	-0.554645	0.941549	1.16091	-0.557813	0.836674	1.40926	-0.521296	0.841897	1.4025	-0.450801	1.43828	0.16875	-0.425748	1.01246	1.08932	-0.361757	1.457	0.570847	-0.405251	1.39516	0.477773	-0.449814	1.39975	0.376553	-0.385678	1.17654	0.909003	-0.489155	1.29637	0.892728	-0.474326	1.32884	0.755324	-0.454554	1.45581	0.212672	-0.329111	1.03917	1.50732	-0.509887	0.98134	1.48235	-0.456471	0.96224	1.43797	-0.52916	1.18926	1.50921	-0.136666	1.16327	1.00957	-0.190692	0.495052	0.401249	-0.244063	1.31278	1.22916	-0.160966	1.17322	1.24072	-0.0549269	1.31141	1.16187	-0.151713	1.07919	1.23322	-0.0220062	1.03613	1.22651	-0.0851833	0.497636	0.188342	-0.196361	1.01166	1.08431	-0.262083	0.810716	0.460915	-0.24991	0.740083	0.462624	-0.182374	0.656332	0.365845	-0.242242	1.03552	0.883678	-0.137987	1.02598	0.722283	-0.171724	0.925214	0.674117	-0.187344	0.531246	0.200337	-0.297944	1.17587	1.43208	-0.0833492	1.18076	1.34337	-0.0897457	1.09467	1.34796	-0.0571
31	0.441667	1.10571	1.54428	-0.308048	1.22101	1.46402	-0.308695	1.10665	1.5235	-0.481107	1.16931	1.03755	-0.417526	1.29358	0.255237	-0.364189	1.00346	1.19161	-0.547923	0.880981	1.35325	-0.554204	0.943289	1.16441	-0.558404	0.836617	1.41264	-0.520003	0.842621	1.4047	-0.450151	1.47896	0.162777	-0.423353	1.01024	1.09163	-0.361484	1.45935	0.566254	-0.403987	1.40932	0.466984	-0.44936	1.42241	0.367221	-0.384546	1.17173	0.903848	-0.48777	1.29157	0.886735	-0.477871	1.32203	0.750038	-0.454022	1.49317	0.207568	-0.328789	1.03945	1.50832	-0.512363	0.982059	1.48397	-0.457478	0.962202	1.43993	-0.529452	1.19028	1.51215	-0.13833	1.16226	1.0141	-0.188664	0.484581	0.432481	-0.241738	1.31139	1.22639	-0.161879	1.17282	1.24234	-0.0549441	1.30923	1.1594	-0.149292	1.07846	1.23804	-0.0221145	1.03575	1.23038	-0.0864369	0.47672	0.219554	-0.195449	1.01028	1.08775	-0.261377	0.806504	0.466783	-0.251275	0.736919	0.473967	-0.183598	0.644765	0.385228	-0.242216	1.03537	0.887991	-0.138725	1.03038	0.723214	-0.17412	0.930793	0.673107	-0.187808	0.510252	0.230784	-0.29746	1.17586	1.43548	-0.0845239	1.18077	1.34738	-0.0899005	1.09453	1.35192	-0.0580168
32	0.45	1.10692	1.5467	-0.310152	1.22161	1.46606	-0.310381	1.10758	1.52459	-0.483329	1.16732	1.03908	-0.416186	1.32385	0.237817	-0.364105	1.00588	1.19408	-0.549003	0.882334	1.35512	-0.554734	0.946175	1.16591	-0.559258	0.837389	1.41386	-0.520213	0.843632	1.40497	-0.450687	1.515	0.158739	-0.420765	1.00768	1.09217	-0.360687	1.45926	0.55943	-0.402843	1.42098	0.455661	-0.448194	1.44209	0.357996	-0.383055	1.16648	0.898513	-0.486182	1.28759	0.880118	-0.480143	1.31528	0.744175	-0.455226	1.52537	0.204091	-0.327472	1.03969	1.50848	-0.515341	0.98259	1.48457	-0.459091	0.962715	1.44015	-0.530529	1.19166	1.51425	-0.140096	1.16119	1.01809	-0.186489	0.479077	0.464736	-0.240809	1.30965	1.22065	-0.161864	1.17183	1.24254	-0.0548898	1.30574	1.15417	-0.14529	1.07694	1.24234	-0.0225434	1.03495	1.23454	-0.0872469	0.457837	0.252853	-0.194162	1.00837	1.08993	-0.260634	0.804471	0.472554	-0.251501	0.735024	0.486573	-0.184652	0.63618	0.405063	-0.241641	1.03716	0.889508	-0.139175	1.03619	0.722818	-0.177696	0.937873	0.671121	-0.188765	0.492872	0.261825	-0.296002	1.17567	1.43805	-0.0857603	1.18018	1.35033	-0.0903177	1.09389	1.35514	-0.0591509
33	0.458333	1.10842	1.54869	-0.3122	1.22212	1.46739	-0.311953	1.10887	1.52507	-0.485518	1.16563	1.04053	-0.415174	1.34994	0.223365	-0.364802	1.00936	1.19459	-0.550218	0.884829	1.3547	-0.556236	0.95018	1.16552	-0.560516	0.838929	1.41291	-0.521939	0.844964	1.40346	-0.452379	1.54614	0.155088	-0.417418	1.00522	1.09099	-0.359219	1.45682	0.550644	-0.401429	1.4294	0.444493	-0.446594	1.45804	0.349338	-0.381317	1.16097	0.893893	-0.484934	1.28465	0.873142	-0.480753	1.30818	0.736911	-0.457438	1.55188	0.201958	-0.324725	1.04018	1.50795	-0.518409	0.983133	1.48408	-0.461165	0.96381	1.43894	-0.532311	1.19343	1.51551	-0.141977	1.16023	1.02126	-0.184359	0.47903	0.497232	-0.241394	1.3074	1.21236	-0.1608	1.17014	1.24166	-0.0546173	1.30063	1.14669	-0.140466	1.07466	1.24614	-0.0231453	1.03339	1.23908	-0.0873803	0.441808	0.288042	-0.192222	1.00618	1.09073	-0.259814	0.804793	0.477928	-0.251076	0.735223	0.499898	-0.185803	0.631041	0.424879	-0.240819	1.04104	0.887887	-0.139139	1.04283	0.721608	-0.181492	0.945794	0.668595	-0.190116	0.478946	0.292984	-0.293495	1.17572	1.43989	-0.0872009	1.1792	1.35224	-0.0910797	1.09293	1.35793	-0.0605957
34	0.466667	1.11013	1.55026	-0.314248	1.22247	1.46777	-0.313371	1.11056	1.52473	-0.487691	1.1643	1.04196	-0.414406	1.37064	0.211293	-0.365864	1.01384	1.19334	-0.551668	0.888267	1.35208	-0.55864	0.955229	1.1634	-0.562303	0.841154	1.40988	-0.525038	0.846692	1.40031	-0.455139	1.57178	0.150455	-0.413142	1.00305	1.08839	-0.357142	1.45216	0.540493	-0.399299	1.43381	0.434179	-0.44508	1.46957	0.341696	-0.379703	1.15557	0.8904	-0.484613	1.28215	0.865457	-0.479986	1.30012	0.72746	-0.459728	1.5723	0.200424	-0.321046	1.04116	1.50667	-0.521281	0.983898	1.48247	-0.463607	0.965528	1.43657	-0.534692	1.19546	1.51585	-0.143868	1.15956	1.02346	-0.1825	0.48426	0.52901	-0.243399	1.30443	1.2019	-0.158596	1.16757	1.23996	-0.0539625	1.2937	1.13739	-0.135555	1.0717	1.24942	-0.0237549	1.031	1.24353	-0.0871843	0.429903	0.324588	-0.189566	1.0041	1.09011	-0.258743	0.807439	0.482576	-0.250601	0.738209	0.513062	-0.187325	0.629562	0.444248	-0.240228	1.04643	0.883847	-0.138652	1.04983	0.720014	-0.184417	0.954032	0.6656	-0.191539	0.468324	0.324103	-0.290252	1.17627	1.44093	-0.0888793	1.17805	1.35312	-0.0921711	1.09181	1.36042	-0.062275
35	0.475	1.11187	1.55127	-0.316362	1.22264	1.46707	-0.314607	1.11256	1.5234	-0.489886	1.16327	1.04324	-0.413696	1.38506	0.200982	-0.366533	1.01929	1.19056	-0.553433	0.892432	1.34746	-0.561842	0.961261	1.15972	-0.564672	0.843966	1.40494	-0.529275	0.848857	1.39558	-0.458883	1.59064	0.144528	-0.408576	1.00111	1.08486	-0.354666	1.44565	0.52994	-0.396635	1.43382	0.425041	-0.444058	1.47623	0.335192	-0.378655	1.15083	0.887962	-0.485475	1.27903	0.85648	-0.478545	1.29064	0.715844	-0.461105	1.58631	0.198716	-0.317577	1.0427	1.50449	-0.523874	0.985017	1.47969	-0.466365	0.967865	1.43315	-0.537574	1.19753	1.5152	-0.145623	1.15929	1.02468	-0.181095	0.494318	0.559184	-0.246595	1.30043	1.18958	-0.155224	1.16396	1.23758	-0.0528971	1.28484	1.12655	-0.130863	1.0681	1.25205	-0.0242583	1.02788	1.24727	-0.0871809	0.423213	0.361682	-0.186368	1.00245	1.08817	-0.257197	0.812284	0.486364	-0.250439	0.744302	0.5252	-0.189231	0.631733	0.462806	-0.240263	1.05234	0.878762	-0.137896	1.05688	0.718212	-0.1858	0.962305	0.662055	-0.192714	0.461113	0.355036	-0.286749	1.17727	1.44104	-0.0906922	1.17682	1.35299	-0.093455	1.0907	1.36256	-0.0639641
36	0.483333	1.11348	1.55148	-0.318562	1.22259	1.46527	-0.31565	1.11469	1.52093	-0.492124	1.16242	1.04409	-0.412897	1.39268	0.191964	-0.365935	1.02568	1.18644	-0.555553	0.897152	1.34108	-0.565754	0.968259	1.15461	-0.567566	0.847274	1.39824	-0.534415	0.851427	1.38932	-0.463575	1.60116	0.137908	-0.404855	0.999312	1.08095	-0.352054	1.43791	0.520049	-0.394385	1.42973	0.416819	-0.443525	1.47794	0.329409	-0.378317	1.14714	0.886102	-0.487183	1.27452	0.845914	-0.477085	1.27976	0.703144	-0.460763	1.59377	0.196207	-0.315344	1.04468	1.50126	-0.526302	0.986495	1.47578	-0.469439	0.970747	1.42861	-0.5409	1.19934	1.51356	-0.147134	1.15943	1.02501	-0.18017	0.508636	0.587119	-0.250767	1.29507	1.17562	-0.150724	1.15925	1.23446	-0.0516048	1.27409	1.11442	-0.126223	1.06395	1.25393	-0.024635	1.02417	1.24996	-0.0876347	0.422176	0.398444	-0.18297	1.00136	1.08511	-0.255086	0.819216	0.48936	-0.250579	0.753422	0.535703	-0.191257	0.637357	0.480282	-0.241007	1.05787	0.873904	-0.13706	1.06385	0.716116	-0.185609	0.970624	0.657914	-0.193493	0.457749	0.38542	-0.28334	1.17836	1.44009	-0.0924378	1.17544	1.35182	-0.094755	1.0896	1.36412	-0.0654033
37	0.491667	1.11484	1.55066	-0.32081	1.22236	1.46247	-0.316499	1.1168	1.51726	-0.494409	1.16162	1.04422	-0.41201	1.39332	0.183855	-0.363461	1.033	1.1811	-0.558028	0.902347	1.33312	-0.570334	0.976247	1.14817	-0.570843	0.851021	1.38987	-0.540311	0.854323	1.38146	-0.469232	1.60233	0.131039	-0.402743	0.997633	1.07706	-0.349568	1.42953	0.511432	-0.393607	1.42231	0.40882	-0.443085	1.47494	0.323477	-0.378324	1.14459	0.884134	-0.488959	1.26859	0.834107	-0.475894	1.2681	0.690988	-0.458499	1.59482	0.192258	-0.314607	1.04691	1.49686	-0.528808	0.988207	1.47071	-0.472904	0.974054	1.42278	-0.544659	1.20057	1.511	-0.148377	1.15984	1.02452	-0.179576	0.526505	0.612496	-0.255768	1.2881	1.1602	-0.145196	1.15342	1.23051	-0.0503617	1.26152	1.10124	-0.121278	1.0593	1.25499	-0.0249487	1.01996	1.25159	-0.088456	0.426577	0.434063	-0.17975	1.00067	1.08118	-0.252567	0.828155	0.491692	-0.250774	0.765212	0.54432	-0.193054	0.646121	0.496511	-0.242186	1.06256	0.869871	-0.136262	1.07082	0.713519	-0.184292	0.979246	0.653206	-0.193923	0.458806	0.414667	-0.28012	1.17901	1.4381	-0.0938917	1.17364	1.34963	-0.0960113	1.08839	1.36478	-0.0664294
38	0.5	1.11592	1.54867	-0.323051	1.22202	1.45875	-0.317156	1.1188	1.51241	-0.496736	1.16077	1.04344	-0.41118	1.38723	0.176226	-0.359138	1.04123	1.17461	-0.5608	0.908036	1.32369	-0.57558	0.98526	1.14041	-0.574318	0.855202	1.37987	-0.546932	0.857474	1.37196	-0.47586	1.5944	0.123324	-0.402003	0.996138	1.07341	-0.347434	1.4207	0.503825	-0.394568	1.41241	0.400341	-0.442258	1.46759	0.316457	-0.378028	1.14287	0.881438	-0.490052	1.26202	0.822088	-0.474945	1.25664	0.68067	-0.454986	1.58992	0.186079	-0.314808	1.04924	1.49116	-0.531646	0.989947	1.46447	-0.47691	0.97767	1.41543	-0.548866	1.20098	1.50761	-0.149391	1.16029	1.02322	-0.179073	0.5471	0.635248	-0.26142	1.27933	1.14356	-0.138771	1.14661	1.22561	-0.0492783	1.24722	1.08731	-0.115772	1.05416	1.25522	-0.0252993	1.01533	1.25232	-0.0894046	0.435877	0.46778	-0.177016	1.00014	1.07663	-0.249987	0.839019	0.493434	-0.250775	0.779234	0.551144	-0.194405	0.657686	0.511412	-0.243375	1.06638	0.866514	-0.135558	1.07803	0.710277	-0.1824	0.988509	0.647967	-0.194141	0.464654	0.442108	-0.277056	1.17872	1.43516	-0.0948891	1.17111	1.3464	-0.0973443	1.08683	1.36426	-0.0670358
